<svg width="915" height="125" viewBox="0 0 915 125" fill="none" xmlns="http://www.w3.org/2000/svg"><path d="M716.384 4.795v-1h-1v1h1zm24.4 0h1v-1h-1v1zm-24.4 114.932h-1v1h1v-1zm24.4 0v1h1v-1h-1zm78.505-20.574l.77-.638-.3-.362h-.47v1zm-27.937 0h-1v1h1v-1zm45.265 20.929v1h2.126l-1.356-1.638-.77.638zm-69.665 0h-1v1h1v-1zm0-115.287v-1h-1v1h1zm24.4 0h1v-1h-1v1zm79.213 52.5l-.788-.616-.449.575.41.603.827-.562zm41.021-52.5l.787.616 1.263-1.616h-2.05v1zM913 119.727v1h1.889l-1.062-1.562-.827.562zm-29.351 0l-.843.539.295.461h.548v-1zm-38.545-60.304l.842-.538-1.842-2.883v3.421h1zm0 37.247l-.762.648 1.762 2.07V96.67h-1zM820.35 67.582h-1v.368l.238.28.762-.648zm0-62.787v-1h-1v1h1zm24.754 0h1v-1h-1v1zm0 52.145h-1v3.058l1.806-2.467-.806-.59zm38.191-52.145v-1h-.507l-.299.409.806.59zM688.801 68.29l-.777.63.777-.63zM667.23 53.038l-.449.894.007.003.007.003.435-.9zm28.997 34.764h1v-.024l-.001-.024-.999.047zm-10.962 25.895l.651.758-.651-.758zm-38.546 8.868l-.764.645.252.299.388.048.124-.992zm-27.229-32.28l-.028-1-2.075.058 1.339 1.586.764-.644zm12.731-.355l.949-.315-.235-.705-.742.02.028 1zm8.133 9.932l.575-.818-.018-.013-.019-.012-.538.843zm26.522-.71l-.666-.746.666.747zm-11.67-27.313l-.448.894.012.005.436-.9zm-8.487-4.257l-.448.894.448-.894zm-20.864-15.253l-.787.616.787-.616zm5.658-41.149l-.63-.776.63.776zm47.033-5.676l.448-.894-.448.894zm13.437 11.352l.691.723.634-.605-.517-.709-.808.59zM677.485 30.69l-.915.405.576 1.3 1.029-.981-.69-.724zm-6.719-7.45l.531-.846-.531.847zm-21.925 1.065l.615.788.023-.017.022-.02-.66-.751zm13.084 26.25l.449-.894-.028-.014-.029-.012-.392.92zm3.183 1.494l-.411.912.411-.912zM25.568 99.725h-1v1h1v-1zm13.796 0v1-1zM25.569 25.507v-1h-1v1h1zm13.795 0v1-1zm27.944 65.297l-.71-.704-.01.011-.011.011.731.682zM1.162 120.42h-1v1h1v-1zm0-115.608v-1h-1v1h1zm33.25 115.608v-1 1zm27.944-2.498l.27.963-.27-.963zm17.332-8.207l-.577-.816-.009.006-.008.007.594.803zm15.918-19.624l-.904-.429-.004.009-.004.009.912.41zm.354-54.593l-.912.41.912-.41zM80.042 15.873l.603-.798-.008-.006-.595.804zM61.295 7.309l.244-.97-.244.97zM32.29 4.812v1-1zm90.199 0v-1h-1v1h1zm24.406 0h1v-1h-1v1zM122.489 120.42h-1v1h1v-1zm24.406 0v1h1v-1h-1zm75.697-61.016v-1h-2.162l1.4 1.648.762-.648zm59.779 0h1v-1h-1v1zM239.57 79.386l-.762.648.3.352h.462v-1zm17.333 0h1v-1h-1v1zM249.475 95.8l-.621-.784.621.784zm-2.83-68.866l.422-.906-.422.906zm13.088 11.418l-.809.588.597.822.812-.61-.6-.8zm16.624-12.488l.601.8.807-.607-.614-.801-.794.608zM255.488 8.023l.45-.893-.45.893zm-25.822-6.066v-1 1zm-43.861 17.127l-.7-.715.7.715zm0 87.063l.71-.704-.005-.005-.006-.006-.699.715zm96.919-41.034h-1 1zm0-3.568h1v-.234l-.104-.21-.896.444zm19.809-56.733v-1h-1v1h1zm24.407 0h1v-1h-1v1zM302.533 120.42h-1v1h1v-1zm24.407 0v1h1v-1h-1zm68.975-94.556v-1h-1v1h1zm0 94.556v1h1v-1h-1zm30.774-94.556v1h.697l.241-.654-.938-.346zm7.782-21.052l.938.346.498-1.346h-1.436v1zm-91.26 0v-1h-1v1h1zm0 21.052h-1v1h1v-1zm28.298 0h1v-1h-1v1zm0 94.556h-1v1h1v-1zM489.298 4.812l.933-.361-.248-.64h-.685v1zm-27.944 0v-1h-.692l-.244.647.936.353zm72.513 115.251v1h1.459l-.527-1.361-.932.361zm-27.944 0l-.77.639.3.361h.47v-1zm-36.434-43.888v-1h-2.129l1.36 1.639.769-.64zm21.224 0v1h1.358l-.403-1.297-.955.297zm-15.918-52.809l.984-.177h-1.968l.984.177zm-30.773 97.054v1h.727l.224-.693-.951-.307zm-26.176 0l-.936-.352-.509 1.352h1.445v-1zm128.047 0h-1v1h1v-1zm0-115.608v-1h-1v1h1zm69.683 115.608v1h2.147l-1.381-1.643-.766.643zM597.89 99.368l.766-.643-.3-.357h-.466v1zm-27.59 0h-1v1h1v-1zm0-94.556h1v-1h-1v1zm146.084.983h24.4v-2h-24.4v2zm1 113.932V4.795h-2v114.932h2zm23.4-1h-24.4v2h24.4v-2zm-1-113.932v114.932h2V4.795h-2zm79.505 93.358h-27.937v2h27.937v-2zm18.098 21.291l-17.328-20.929-1.54 1.276 17.327 20.929 1.541-1.276zm-70.435 1.638h69.665v-2h-69.665v2zm-1-116.287v115.287h2V4.795h-2zm25.4-1h-24.4v2h24.4v-2zm1 95.358V4.795h-2v94.358h2zm79.001-41.243l41.02-52.5-1.575-1.23-41.021 52.5 1.576 1.23zm42.474 61.255l-42.435-62.432-1.654 1.124 42.435 62.432 1.654-1.124zm-30.178 1.562H913v-2h-29.351v2zm-39.388-60.765l38.545 60.304 1.686-1.077-38.546-60.304-1.685 1.077zm1.843 36.708V59.423h-2V96.67h2zm-26.516-28.44l24.754 29.088 1.523-1.296-24.754-29.088-1.523 1.296zm-.238-63.435v62.787h2V4.795h-2zm25.754-1H820.35v2h24.754v-2zm1 53.145V4.795h-2V56.94h2zm36.385-52.736l-38.192 52.145 1.613 1.182 38.192-52.145-1.613-1.182zm29.097-.41h-28.291v2h28.291v-2zM689.578 67.663c-4.735-5.846-12.318-10.89-21.913-15.524l-.87 1.8c9.5 4.59 16.77 9.478 21.229 14.983l1.554-1.259zm7.648 20.092c-.364-7.663-2.918-14.252-7.648-20.092l-1.554 1.259c4.464 5.511 6.861 11.693 7.204 18.928l1.998-.095zm-11.31 26.701c7.681-6.604 11.311-15.413 11.311-26.653h-2c0 10.753-3.443 18.97-10.614 25.137l1.303 1.516zm-30.356 9.819c12.551 0 22.705-3.24 30.356-9.819l-1.303-1.516c-7.201 6.191-16.85 9.335-29.053 9.335v2zm-8.965-.717c2.824.354 5.711.717 8.965.717v-2c-3.112 0-5.882-.346-8.716-.701l-.249 1.984zM618.726 90.93l27.229 32.281 1.529-1.29-27.23-32.28-1.528 1.29zm13.467-1.999l-12.731.355.056 2 12.73-.355-.055-2zm8.699 10.09c-3.739-2.387-6.395-5.41-7.722-9.405l-1.898.63c1.501 4.518 4.503 7.88 8.544 10.46l1.076-1.686zm12.193 3.39c-4.461 0-8.837-1.035-12.156-3.366l-1.15 1.637c3.754 2.635 8.572 3.729 13.306 3.729v-2zm13.125-4.004c-2.936 2.619-7.259 4.004-13.125 4.004v2c6.156 0 11.028-1.453 14.456-4.51l-1.331-1.494zm4.617-10.25c0 4.31-1.634 7.591-4.617 10.25l1.331 1.493c3.383-3.016 5.286-6.83 5.286-11.743h-2zM654.77 72.738c5.438 2.64 9.485 5.245 12.161 7.844 2.67 2.593 3.896 5.1 3.896 7.574h2c0-3.201-1.603-6.193-4.503-9.009-2.894-2.811-7.157-5.526-12.681-8.208l-.873 1.8zm-8.499-4.262l8.487 4.257.897-1.788-8.487-4.257-.897 1.788zm-21.203-15.53c4.019 5.13 11.238 10.532 21.203 15.53l.897-1.788c-9.839-4.934-16.765-10.175-20.526-14.976l-1.574 1.233zm-5.871-18.354c0 7.282 1.822 13.184 5.871 18.353l1.574-1.233c-3.731-4.763-5.445-10.212-5.445-17.12h-2zm11.686-24.188c-7.65 6.212-11.686 14.296-11.686 24.188h2c0-9.263 3.744-16.787 10.947-22.636l-1.261-1.552zM660.511.957c-12.21 0-21.993 3.246-29.628 9.447l1.261 1.552c7.217-5.86 16.53-8.999 28.367-8.999v-2zm18.483 3.653C673.856 2.034 667.675.957 660.511.957v2c6.981 0 12.823 1.052 17.586 3.441l.897-1.788zm13.797 11.655c-3.993-5.462-8.719-9.108-13.797-11.655l-.897 1.788c4.824 2.42 9.292 5.868 13.079 11.048l1.615-1.18zm-14.616 15.149l14.499-13.835-1.381-1.447-14.499 13.835 1.381 1.447zm-7.94-7.326c2.701 1.693 5.019 4.037 6.335 7.007l1.829-.81c-1.513-3.415-4.145-6.038-7.102-7.892l-1.062 1.695zm-9.724-2.33c3.781 0 7.11.691 9.724 2.33l1.062-1.695c-3.044-1.908-6.788-2.635-10.786-2.635v2zm-11.01 3.299c2.576-2.262 6.189-3.3 11.01-3.3v-2c-5.081 0-9.249 1.092-12.33 3.796l1.32 1.503zm-4.257 8.826c0-3.616 1.289-6.509 4.212-8.79l-1.23-1.576c-3.442 2.685-4.982 6.177-4.982 10.366h2zm17.073 15.752c-5.779-2.46-10.08-5.064-12.922-7.745-2.836-2.675-4.151-5.355-4.151-8.007h-2c0 3.378 1.691 6.55 4.778 9.462 3.082 2.907 7.621 5.623 13.512 8.13l.783-1.84zm3.202 1.503a80.812 80.812 0 01-3.145-1.477l-.897 1.788a83.1 83.1 0 003.22 1.512l.822-1.823zm2.159 1.006c-.658-.33-1.385-.657-2.159-1.006l-.822 1.823c.783.353 1.471.663 2.084.97l.897-1.787zm-642.11 48.581h13.796v-2H25.569v2zm-1-75.218v74.218h2V25.507h-2zm14.796-1H25.569v2h13.795v-2zm28.654 9.216c-6.28-6.335-15.793-9.216-28.654-9.216v2c12.607 0 21.488 2.828 27.234 8.624l1.42-1.408zm9.133 28.893c0-12.968-2.854-22.559-9.133-28.893l-1.42 1.408c5.747 5.798 8.553 14.762 8.553 27.485h2zm-9.133 28.892c6.28-6.334 9.133-15.924 9.133-28.892h-2c0 12.723-2.806 21.686-8.553 27.484l1.42 1.408zm-28.654 9.217c12.84 0 22.735-2.871 28.675-9.239l-1.462-1.364c-5.379 5.765-14.584 8.603-27.213 8.603v2zM2.162 120.42V4.812h-2V120.42h2zm32.25-1H1.162v2h33.25v-2zm27.674-2.461c-6.225 1.745-15.657 2.461-27.674 2.461v2c12.036 0 21.705-.711 28.214-2.535l-.54-1.926zm17.008-8.047c-5.189 3.837-10.731 6.289-17.008 8.047l.54 1.926c6.457-1.809 12.233-4.354 17.657-8.366l-1.19-1.607zm15.6-19.232c-3.471 7.703-8.668 14.336-15.583 19.219l1.154 1.633c7.234-5.108 12.65-12.034 16.252-20.03l-1.823-.822zm5.571-27.064c0 10.228-1.747 18.997-5.563 27.046l1.807.857c3.966-8.364 5.756-17.436 5.756-27.903h-2zm-5.217-26.707c3.468 7.697 5.217 16.83 5.217 26.707h2c0-10.105-1.788-19.527-5.394-27.53l-1.823.823zM79.438 16.67c6.953 5.26 12.147 11.554 15.61 19.239l1.823-.822c-3.612-8.016-9.03-14.567-16.226-20.012L79.44 16.67zM61.05 8.28c6.97 1.757 13.212 4.562 18.397 8.398l1.19-1.608c-5.427-4.014-11.918-6.919-19.098-8.73l-.489 1.94zM32.29 5.812c12.36 0 21.81.714 28.76 2.467l.49-1.94c-7.2-1.815-16.85-2.527-29.25-2.527v2zm-31.128 0H32.29v-2H1.162v2zm121.327 0h24.406v-2h-24.406v2zm1 114.608V4.812h-2V120.42h2zm23.406-1h-24.406v2h24.406v-2zm-1-114.608V120.42h2V4.812h-2zm76.697 55.592h59.779v-2h-59.779v2zm17.74 18.335l-16.978-19.982-1.524 1.295 16.978 19.982 1.524-1.295zm16.571-.353H239.57v2h17.333v-2zm1 2.427v-1.427h-2v1.427h2zm-7.807 15.77c5.18-4.105 7.807-9.384 7.807-15.77h-2c0 5.746-2.325 10.459-7.049 14.203l1.242 1.567zm-20.076 5.926c8.281 0 14.893-1.818 20.076-5.926l-1.242-1.567c-4.722 3.742-10.844 5.493-18.834 5.493v2zm-27.257-11.02c6.933 7.363 16.052 11.02 27.257 11.02v-2c-10.726 0-19.293-3.48-25.801-10.39l-1.456 1.37zm-10.53-28.873c0 11.993 3.611 21.527 10.53 28.874l1.456-1.371c-6.522-6.926-9.986-15.946-9.986-27.503h-2zm10.53-29.231c-6.925 7.353-10.53 17.247-10.53 29.23h2c0-11.566 3.469-20.94 9.986-27.859l-1.456-1.371zm27.964-11.019c-11.542 0-21.022 3.647-27.964 11.019l1.456 1.371c6.499-6.9 15.413-10.39 26.508-10.39v-2zm16.34 3.662c-4.714-2.195-10.163-3.662-16.34-3.662v2c5.85 0 11.013 1.387 15.496 3.475l.844-1.813zm13.474 11.736c-3.969-5.46-8.691-9.51-13.474-11.736l-.844 1.813c4.414 2.055 8.888 5.854 12.701 11.1l1.617-1.177zm15.216-12.7l-16.625 12.489 1.201 1.599 16.625-12.489-1.201-1.599zM255.038 8.916c7.629 3.848 14.591 9.808 20.526 17.556l1.587-1.216c-6.091-7.953-13.278-14.124-21.213-18.126l-.9 1.786zm-25.372-5.959c9.042 0 17.731 2.105 25.372 5.959l.9-1.786c-7.923-3.996-16.92-6.173-26.272-6.173v2zm-43.162 16.842c11.472-11.221 25.717-16.842 43.162-16.842v-2c-17.926 0-32.686 5.797-44.561 17.412l1.399 1.43zm-17.032 42.817c0-17.248 5.573-31.608 17.032-42.817l-1.399-1.43c-11.887 11.628-17.633 26.526-17.633 44.247h2zm17.032 42.816c-11.459-11.208-17.032-25.569-17.032-42.816h-2c0 17.72 5.746 32.618 17.633 44.246l1.399-1.43zm43.162 16.842c-17.455 0-32.043-5.626-43.151-16.831l-1.42 1.408c11.53 11.632 26.654 17.423 44.571 17.423v-2zm37.468-15.735c-9.701 10.485-22.162 15.735-37.468 15.735v2c15.822 0 28.829-5.453 38.936-16.377l-1.468-1.358zm14.59-41.425c0 17.282-4.888 30.939-14.59 41.425l1.468 1.358c10.106-10.923 15.122-25.098 15.122-42.784h-2zm0-3.569v3.569h2v-3.569h-2zm-.353-2.14c0 .688-.015 1.632.457 2.584l1.792-.888c-.235-.474-.249-.958-.249-1.697h-2zm21.162-53.593h24.407v-2h-24.407v2zm1 114.608V4.812h-2V120.42h2zm23.407-1h-24.407v2h24.407v-2zm-1-114.608V120.42h2V4.812h-2zm68.975 21.052v94.556h2V25.864h-2zm31.774-1h-30.774v2h30.774v-2zm6.844-20.4l-7.782 21.053 1.876.693 7.782-21.052-1.876-.693zm-90.322 1.348h91.26v-2h-91.26v2zm1 20.052V4.812h-2v21.052h2zm27.298-1h-28.298v2h28.298v-2zm1 95.556V25.864h-2v94.556h2zm23.406-1h-24.406v2h24.406v-2zM489.298 3.812h-27.944v2h27.944v-2zm45.501 115.89L490.231 4.451l-1.866.721 44.569 115.252 1.865-.722zm-28.876 1.361h27.944v-2h-27.944v2zm-37.203-44.25l36.433 43.889 1.539-1.278-36.433-43.888-1.539 1.278zm21.993-1.638h-21.224v2h21.224v-2zm-16.902-51.632c.19 1.052 1.297 4.918 2.811 10.015 1.527 5.139 3.495 11.62 5.441 17.977a6180.938 6180.938 0 007.524 24.387l.127.41.033.104.008.027.002.007.001.001.955-.296c.955-.297.954-.297.954-.298v-.001l-.002-.007a2469.874 2469.874 0 01-13.126-42.88c-1.536-5.174-2.595-8.89-2.76-9.8l-1.968.354zm-29.789 96.877l.951.306.002-.003.004-.013.016-.05.064-.2.252-.78.956-2.962 3.415-10.604c2.83-8.793 6.611-20.557 10.414-32.445a7517.13 7517.13 0 0010.546-33.183c1.46-4.642 2.693-8.605 3.584-11.531.878-2.883 1.451-4.846 1.553-5.412l-1.968-.354c-.075.416-.596 2.22-1.498 5.183-.888 2.918-2.12 6.874-3.579 11.515a7421.201 7421.201 0 01-10.543 33.173 20188.562 20188.562 0 01-10.413 32.441c-1.414 4.396-2.592 8.049-3.415 10.603l-.955 2.962-.252.78-.064.199-.017.051a.055.055 0 01-.004.012l-.001.004.952.308zm-26.176 1h26.176v-2h-26.176v2zM460.418 4.46L416.91 120.067l1.872.704L462.29 5.164l-1.872-.705zm86.475 115.96V4.812h-2V120.42h2zm68.683-1h-69.683v2h69.683v-2zm-18.451-19.409l17.686 21.052 1.531-1.286-17.686-21.052-1.531 1.286zm-26.825.357h27.59v-2H570.3v2zm-1-95.556v94.556h2V4.812h-2zm-23.407 1H570.3v-2h-24.407v2z" fill="url(#paint0_linear_7381_17406)"/><defs><linearGradient id="paint0_linear_7381_17406" x1="910.846" y1="-1.009" x2="910.022" y2="84.095" gradientUnits="userSpaceOnUse"><stop stop-color="#009CFF"/><stop offset="1" stop-color="#9536E5"/></linearGradient></defs></svg>