<svg width="143" height="142" viewBox="0 0 143 142" fill="none" xmlns="http://www.w3.org/2000/svg">
<path d="M140.718 93.7986H141.305C141.56 93.7986 141.843 93.8936 141.843 94.2183C141.843 94.5861 141.492 94.6193 141.17 94.6193H140.718V94.7767H141.271L141.911 95.7508H142.112L141.478 94.782C141.781 94.7336 142.026 94.5669 142.026 94.2235C142.026 93.8411 141.814 93.6406 141.333 93.6406H140.535V95.7508H140.718V93.7986Z" fill="white"/>
<path d="M141.189 92.9106C142.184 92.9106 142.987 93.7075 142.987 94.6961C142.987 95.6842 142.184 96.481 141.189 96.481C140.194 96.481 139.391 95.6842 139.391 94.6961C139.391 93.7075 140.194 92.9106 141.189 92.9106L141.193 93.0686C140.266 93.0686 139.574 93.7745 139.574 94.6961C139.574 95.5979 140.275 96.3237 141.193 96.3237C142.111 96.3237 142.804 95.5933 142.804 94.6909C142.804 93.7792 142.116 93.0686 141.193 93.0686L141.189 92.9106Z" fill="white"/>
<path d="M123.308 94.7455H114.832V45.5474H123.308V64.8188L127.657 45.5474H136.72L131.003 65.2857L137.025 94.7455H128.215L125.133 73.4321L123.308 77.154V94.7455Z" fill="white"/>
<path d="M97.1641 86.4653H88.9352V73.5279H95.4254V65.2667H88.9352V53.2259H97.1641V45.5476H79.9883V94.7457H97.1641V86.4653Z" fill="white"/>
<path d="M114.095 86.4653H106.227V73.5279H112.432V65.2667H106.227V53.2259H114.095V45.5476H97.6719V94.7457H114.095V86.4653Z" fill="white"/>
<path d="M45.3828 45.5474L51.4468 94.7455H60.6244L62.9367 63.1138L65.9441 94.7455H73.8402L79.4246 45.5474H72.4372L70.7119 73.189L67.7627 45.5474H58.699L56.3362 72.7542L53.4368 45.5474H45.3828Z" fill="white"/>
<path d="M36.989 84.2377C36.989 86.1118 36.1361 87.6309 35.0841 87.6309H33.6071V53.2256L35.0841 53.2262C36.1361 53.2262 36.989 54.7447 36.989 56.6194V84.2377ZM38.8745 45.5474H24.8363V76.6277L24.8281 76.5472V94.7455L38.8745 94.7449C42.4695 94.7449 45.3835 90.5665 45.3835 85.4129V54.88C45.3835 49.7258 42.4695 45.5474 38.8745 45.5474Z" fill="white"/>
<path d="M9.71993 76.9638L11.8685 55.9511L14.017 76.9638H9.71993ZM18.8124 45.5471H5.98702L0.046875 94.7762H7.71288L8.60458 83.7712H13.9577L14.85 94.7762H24.3375L18.8124 45.5471Z" fill="white"/>
</svg>
